<?xml version="1.0" encoding="UTF-8"?>
<svg xmlns="http://www.w3.org/2000/svg" version="1.1" xmlns:xlink="http://www.w3.org/1999/xlink" viewBox="0 0 1079 465">
  <defs>
    <style>
      .cls-1 {
        opacity: .8;
        stroke: #e1e1e1;
      }

      .cls-1, .cls-2, .cls-3, .cls-4, .cls-5, .cls-6 {
        isolation: isolate;
      }

      .cls-1, .cls-7, .cls-8, .cls-9 {
        fill: none;
      }

      .cls-10 {
        clip-path: url(#clippath-4);
      }

      .cls-2 {
        font-size: 10px;
      }

      .cls-2, .cls-3, .cls-4, .cls-5 {
        font-family: TimesNewRomanPSMT, 'Times New Roman';
      }

      .cls-2, .cls-3, .cls-4, .cls-5, .cls-6 {
        fill: #444;
      }

      .cls-11 {
        fill: #fff;
      }

      .cls-12 {
        clip-path: url(#clippath-5);
      }

      .cls-3 {
        font-size: 8.9px;
      }

      .cls-13 {
        clip-path: url(#clippath-3);
      }

      .cls-14 {
        fill-opacity: 0;
      }

      .cls-8 {
        stroke-opacity: 0;
      }

      .cls-8, .cls-9 {
        stroke: #9c9c9c;
      }

      .cls-4 {
        font-size: 12px;
      }

      .cls-5 {
        font-size: 10.7px;
      }

      .cls-15 {
        fill: #a6cee3;
        fill-opacity: .7;
        stroke: #a6cee3;
      }

      .cls-16 {
        clip-path: url(#clippath);
      }

      .cls-6 {
        font-family: TimesNewRomanPS-BoldMT, 'Times New Roman';
        font-size: 16px;
        font-weight: 700;
      }
    </style>
    <clipPath id="clippath">
      <rect class="cls-7" x="-1" y="-1" width="1076" height="459"/>
    </clipPath>
    <clipPath id="clippath-3">
      <rect class="cls-7" x="-1" y="-1" width="1076" height="459"/>
    </clipPath>
    <clipPath id="clippath-4">
      <rect class="cls-7" x="-1" y="-1" width="1076" height="459"/>
    </clipPath>
    <clipPath id="clippath-5">
      <rect class="cls-7" x="67.6" y="44" width="1003.3" height="362"/>
    </clipPath>
    <clipPath id="clippath-6">
      <rect class="cls-7" x="67.6" y="44" width="1003.3" height="362"/>
    </clipPath>
  </defs>
  <!-- Generator: Adobe Illustrator 28.7.5, SVG Export Plug-In . SVG Version: 1.2.0 Build 176)  -->
  <g>
    <g id="Layer_1">
      <rect id="backgroundRect" class="cls-11" width="1079" height="465"/>
      <g class="cls-16">
        <text class="cls-6" transform="translate(333.2 23)"><tspan x="0" y="0">Frequency of Vehicles Lost at the Household Level in Boston</tspan></text>
      </g>
      <rect class="cls-14" x="68.6" y="45" width="1001.3" height="360"/>
      <g class="cls-13">
        <g>
          <text class="cls-3" transform="translate(165.2 425.5) scale(1.1 1)"><tspan x="0" y="0">0</tspan></text>
          <line class="cls-9" x1="168.8" y1="405" x2="168.8" y2="408.6"/>
          <text class="cls-3" transform="translate(365.4 425.5) scale(1.1 1)"><tspan x="0" y="0">1</tspan></text>
          <line class="cls-9" x1="369" y1="405" x2="369" y2="408.6"/>
          <text class="cls-3" transform="translate(565.7 425.5) scale(1.1 1)"><tspan x="0" y="0">2</tspan></text>
          <line class="cls-9" x1="569.3" y1="405" x2="569.3" y2="408.6"/>
          <text class="cls-3" transform="translate(765.9 425.5) scale(1.1 1)"><tspan x="0" y="0">3</tspan></text>
          <line class="cls-9" x1="769.5" y1="405" x2="769.5" y2="408.6"/>
          <text class="cls-3" transform="translate(965.7 425.5) scale(1.1 1)"><tspan x="0" y="0">4</tspan></text>
          <line class="cls-9" x1="969.8" y1="405" x2="969.8" y2="408.6"/>
          <line class="cls-9" x1="68.6" y1="405" x2="1069.9" y2="405"/>
          <text class="cls-5" transform="translate(545.5 447.7) scale(1.1 1)"><tspan x="0" y="0">Vehicles Lost</tspan></text>
        </g>
      </g>
      <g class="cls-10">
        <g>
          <text class="cls-2" transform="translate(48.5 410.5)"><tspan x="0" y="0">0</tspan></text>
          <line class="cls-1" x1="68.6" y1="358.2" x2="1069.9" y2="358.2"/>
          <text class="cls-2" transform="translate(41.3 363.7)"><tspan x="0" y="0">20</tspan></text>
          <line class="cls-1" x1="68.6" y1="311.5" x2="1069.9" y2="311.5"/>
          <text class="cls-2" transform="translate(40.3 317)"><tspan x="0" y="0">40</tspan></text>
          <line class="cls-1" x1="68.6" y1="264.7" x2="1069.9" y2="264.7"/>
          <text class="cls-2" transform="translate(41.3 270.2)"><tspan x="0" y="0">60</tspan></text>
          <line class="cls-1" x1="68.6" y1="218" x2="1069.9" y2="218"/>
          <text class="cls-2" transform="translate(41.3 223.5)"><tspan x="0" y="0">80</tspan></text>
          <line class="cls-1" x1="68.6" y1="171.2" x2="1069.9" y2="171.2"/>
          <text class="cls-2" transform="translate(34.1 176.7)"><tspan x="0" y="0">100</tspan></text>
          <line class="cls-1" x1="68.6" y1="124.5" x2="1069.9" y2="124.5"/>
          <text class="cls-2" transform="translate(34.1 130)"><tspan x="0" y="0">120</tspan></text>
          <line class="cls-1" x1="68.6" y1="77.7" x2="1069.9" y2="77.7"/>
          <text class="cls-2" transform="translate(34.1 83.2)"><tspan x="0" y="0">140</tspan></text>
          <text class="cls-4" transform="translate(17 246.7) rotate(-90)"><tspan x="0" y="0">Number of Households</tspan></text>
          <line class="cls-8" x1="68.6" y1="45" x2="68.6" y2="405"/>
        </g>
      </g>
      <g class="cls-12">
        <g>
          <rect class="cls-15" x="98.7" y="269.4" width="140.2" height="135.6"/>
          <rect class="cls-15" x="298.9" y="45" width="140.2" height="360"/>
          <rect class="cls-15" x="499.2" y="355.9" width="140.2" height="49.1"/>
          <rect class="cls-15" x="699.4" y="398" width="140.2" height="7"/>
          <rect class="cls-15" x="899.7" y="400.3" width="140.2" height="4.7"/>
        </g>
      </g>
    </g>
  </g>
</svg>